<?xml version="1.0" encoding="utf-8"?>
<!-- Generator: Adobe Illustrator 24.1.2, SVG Export Plug-In . SVG Version: 6.00 Build 0)  -->
<svg version="1.1" id="Layer_1" xmlns="http://www.w3.org/2000/svg" xmlns:xlink="http://www.w3.org/1999/xlink" x="0px" y="0px"
	 viewBox="0 0 419.4 359.5" style="enable-background:new 0 0 419.4 359.5;" xml:space="preserve">
<g>
	<path d="M279.8,179.9c0,42,0,83.9,0,125.9c0,21.8-13.8,37.8-35.1,41.1c-7.8,1.2-15.3-0.3-22.2-3.8c-40.1-20-80.3-39.9-120.2-60.4
		c-6.4-3.3-11.9-4.1-18.9-3.6c-16.2,1.1-32.9,2.5-48.2-5.1C12.9,262.9,0.9,244.8,0.4,220c-0.5-26.8-0.4-53.6-0.1-80.5
		C0.7,106.9,25.2,81.5,58,80c11.3-0.5,22.6,1,34,1.6c1,0,2.1,0,3-0.4c18.4-9.5,36.7-19.2,55.1-28.5c24-12.2,48.1-24.3,72.3-36.1
		c20.7-10.1,45.3-1.2,54,19.8c2.3,5.4,3.3,11.8,3.4,17.7C279.9,96,279.8,137.9,279.8,179.9z M239.6,52.9c-1.3,0.5-2.3,0.7-3.2,1.2
		c-37.8,18.8-75.5,37.7-113.3,56.5c-2.9,1.4-3.1,3.3-3.1,6c0.1,42.1,0.1,84.2,0,126.3c0,3.3,1,4.9,4,6.4
		c37,18.3,73.9,36.8,110.8,55.3c1.5,0.7,3,1.4,4.9,2.3C239.6,221.9,239.6,137.6,239.6,52.9z M80,119.8c-1.9,0-3.6,0-5.3,0
		c-5.8,0-11.6-0.4-17.3,0.3c-9.7,1.1-17,9.4-17.1,19.2c-0.1,27-0.1,53.9,0,80.9c0.1,9.8,7.4,18.3,17.1,19.2
		c7.4,0.7,14.9,0.1,22.6,0.1C80,199.5,80,159.9,80,119.8z"/>
	<path d="M369.9,159.8c9.7,0,19.3-0.1,29,0c11.9,0.1,20.4,8.4,20.5,19.7c0.1,11.5-8.4,20-20.6,20.1c-19.5,0.1-39,0.1-58.5,0
		c-12.1-0.1-20.6-8.6-20.5-20.1c0.1-11.3,8.6-19.5,20.6-19.6C350.3,159.7,360.1,159.8,369.9,159.8z"/>
	<path d="M342.2,79.9c-11-0.4-17.1-4.3-20.7-12c-3.5-7.6-1.9-16,4.3-22.4c11.1-11.3,22.4-22.5,33.7-33.7c2-2,3.9-4,6-5.9
		c8.4-7.9,20.3-7.9,28.2-0.2c8,7.9,8.1,20.1-0.1,28.5c-10.8,11-21.8,21.9-32.7,32.8c-2.6,2.6-5,5.8-8.1,7.7
		C348.9,77.3,344.4,78.9,342.2,79.9z"/>
	<path d="M319.8,299.3c0.3-8.4,4.2-14.7,11.9-18c7.8-3.4,15.4-2.2,21.7,3.7c7.4,7,14.4,14.2,21.5,21.4c6.1,6.1,12.2,12.1,18.2,18.2
		c8.5,8.7,8.7,20.8,0.7,28.8c-8,8.1-20.2,8-28.8-0.5c-13.1-12.9-26-26-39-39C321.9,310,319.7,305.1,319.8,299.3z"/>
</g>
</svg>
