<?xml version="1.0" encoding="utf-8"?>
<!-- Generator: Adobe Illustrator 24.1.2, SVG Export Plug-In . SVG Version: 6.00 Build 0)  -->
<svg version="1.1" id="Layer_1" xmlns="http://www.w3.org/2000/svg" xmlns:xlink="http://www.w3.org/1999/xlink" x="0px" y="0px"
	 viewBox="0 0 384 270.1" style="enable-background:new 0 0 384 270.1;" xml:space="preserve">
<path d="M384,29.3c0,70.5,0,141,0,211.5c-0.2,0.3-0.4,0.7-0.5,1c-5,19.2-16.7,28.2-36.4,28.2c-84.4,0-168.9,0-253.3,0
	c-20,0-40,0.1-60-0.1C21,269.9,11,264.2,4.6,253c-2.1-3.7-3.1-8.1-4.6-12.2c0-70.5,0-141,0-211.5c0.2-0.3,0.4-0.7,0.5-1
	C5.9,8.6,17.1,0.1,37.6,0.1c81.4,0,162.9,0,244.3,0c22.7,0,45.5-0.2,68.2,0.1c14.3,0.2,24.7,7.1,30.8,20C382.4,23,383,26.2,384,29.3
	z M344.7,23.7c-0.2-0.3-0.4-0.5-0.5-0.8c-101.4,0-202.9,0-304.3,0c0.5,1.4,1.5,2,2.2,2.8c46.4,46.5,92.8,93.1,139.3,139.7
	c7.2,7.2,14.2,7.3,21.4,0c33.4-33.4,66.7-66.9,100.1-100.3C316.7,51.2,330.7,37.5,344.7,23.7z M39.1,247.2c102.3,0,203.7,0,305.9,0
	c-32.5-32.2-64.4-63.8-96.5-95.7c-0.7,0.7-1.7,1.6-2.7,2.6c-9.4,9.4-18.7,18.8-28.1,28.1c-14.7,14.6-36.6,14.6-51.3,0
	c-5.7-5.6-11.3-11.3-16.9-17c-4.7-4.7-9.3-9.3-13.8-13.8C103.5,183.4,71.5,215,39.1,247.2z M22.7,230.3
	c31.9-31.6,64.1-63.4,96.3-95.4C86.8,103,54.6,71.1,22.7,39.4C22.7,103,22.7,167.1,22.7,230.3z M361.3,230.5c0-63.4,0-127.5,0-190.8
	c-31.9,31.6-64,63.4-96.3,95.3C297.2,167,329.4,198.9,361.3,230.5z"/>
</svg>
