<?xml version="1.0" encoding="utf-8"?>
<!-- Generator: Adobe Illustrator 24.1.2, SVG Export Plug-In . SVG Version: 6.00 Build 0)  -->
<svg version="1.1" id="Layer_1" xmlns="http://www.w3.org/2000/svg" xmlns:xlink="http://www.w3.org/1999/xlink" x="0px" y="0px"
	 viewBox="0 0 328.2 335.2" style="enable-background:new 0 0 328.2 335.2;" xml:space="preserve">
<g>
	<path d="M90.5,75.5c8.3,8.2,16.6,16.3,24.7,24.6c7,7.2,6.8,17.3-0.2,23.6c-3.2,2.9-7.1,4.1-11.4,4.1c-28.8,0-57.7,0.1-86.5,0
		c-9.9,0-16.3-6.7-16.4-16.6c-0.1-28.7,0-57.4,0-86.1c0-7.4,3-12.9,9.9-15.7c6.8-2.8,12.9-1,18.1,4.2c8.2,8.2,16.4,16.4,24.6,24.6
		c0.9,1,1.5,2.3,1.9,3.1c9.5-6.6,17.8-12.8,26.5-18.3c26.5-16.3,55.3-24.3,86.5-22.8C240.8,3.7,302.3,52.9,322,123
		c26.5,94.1-34.8,192-131,209.5C108,347.5,27.7,300,1.1,220c-3.5-10.5,1.2-18.6,12.1-20.9c3.9-0.8,7.9-1.4,11.7-2.5
		C37,193.1,45.1,200.7,48,209c3.8,10.9,9.2,21.1,16.3,30.1c31,39.1,71.6,55.7,120.4,45.5c49.1-10.2,80.7-41.5,92.4-90.4
		c15.6-65.5-25.9-129.6-91.9-143.9c-35-7.6-65.8,1.7-93.4,23.8C91.4,74.4,91.1,74.8,90.5,75.5z"/>
</g>
</svg>
